# xmcd
#
# Track frame offsets:
#  150
#  11067
#  19430
#  31342
#  43402
#  54686
#  67537
#  80321
#  94459
#  104335
#  112820
#  124475
#  137546
#  150826
#  160894
#  176817
#  189916
#  202080
#
# Disc length: 2858 seconds
#
# Revision: 0
# Processed by: cddbd v1.5.2PL0 Copyright (c) Steve Scherf et al.
# Submitted via: Collectorz.com Music Collector 6.9
#
DISCID=f00b2812
DTITLE=Philomena Begley - Ray Lynam - My Elusive Dreams
DYEAR=2002
DGENRE=Country
TTITLE0=You And Me Her And Him
TTITLE1=All These Little Things
TTITLE2=We've Run Out of Tomorrow
TTITLE3=We Go Together
TTITLE4=Seeing Eye To Eye
TTITLE5=That's When My Baby Sings His Song
TTITLE6=Mr. And Mrs. Used To Be
TTITLE7=Daddy Was An Old Time Preacher Man
TTITLE8=Anything's Better Than Nothing
TTITLE9=We Love To Sing About Jesus
TTITLE10=Silver Sandals
TTITLE11=You're the One I Can't Live Without
TTITLE12=Papa's Wagon
TTITLE13=You Never Were Mine
TTITLE14=My Elusive Dreams
TTITLE15=What's Your Mama's Name
TTITLE16=Jeannie's Afraid of the Dark
TTITLE17=I Can't Believe You Stopped Loving Me
EXTD=
EXTT0=
EXTT1=
EXTT2=
EXTT3=
EXTT4=
EXTT5=
EXTT6=
EXTT7=
EXTT8=
EXTT9=
EXTT10=
EXTT11=
EXTT12=
EXTT13=
EXTT14=
EXTT15=
EXTT16=
EXTT17=
PLAYORDER=
